<svg width="36" height="37" viewBox="0 0 36 37" fill="none" xmlns="http://www.w3.org/2000/svg">
<rect y="0.5" width="36" height="36" rx="8" fill="#62C9CC"/>
<rect x="0.5" y="1" width="35" height="35" rx="7.5" stroke="#62C9CC" stroke-opacity="0.12"/>
<path d="M10.9311 10.7852C10.0786 10.7852 9.26103 11.1238 8.65824 11.7266C8.05544 12.3294 7.7168 13.147 7.7168 13.9994V14.6423H28.2848V13.9994C28.2848 13.147 27.9462 12.3294 27.3434 11.7266C26.7406 11.1238 25.923 10.7852 25.0705 10.7852H10.9311ZM7.7168 22.9994V15.928H28.2848V22.9994C28.2848 23.8519 27.9462 24.6695 27.3434 25.2723C26.7406 25.8751 25.923 26.2137 25.0705 26.2137H10.9319C10.0795 26.2137 9.26189 25.8751 8.6591 25.2723C8.0563 24.6695 7.71765 23.8519 7.71765 22.9994H7.7168ZM21.6419 20.6423C21.4714 20.6423 21.3079 20.71 21.1874 20.8306C21.0668 20.9511 20.9991 21.1147 20.9991 21.2852C20.9991 21.4557 21.0668 21.6192 21.1874 21.7397C21.3079 21.8603 21.4714 21.928 21.6419 21.928H24.6419C24.8124 21.928 24.976 21.8603 25.0965 21.7397C25.2171 21.6192 25.2848 21.4557 25.2848 21.2852C25.2848 21.1147 25.2171 20.9511 25.0965 20.8306C24.976 20.71 24.8124 20.6423 24.6419 20.6423H21.6419Z" fill="white"/>
</svg>
