<svg width="36" height="37" viewBox="0 0 36 37" fill="none" xmlns="http://www.w3.org/2000/svg">
<rect y="0.5" width="36" height="36" rx="8" fill="#62C9CC"/>
<rect x="0.5" y="1" width="35" height="35" rx="7.5" stroke="#62C9CC" stroke-opacity="0.12"/>
<path d="M17.25 14.347C16.314 14.603 15.75 15.322 15.75 16C15.75 16.678 16.314 17.397 17.25 17.652V14.347ZM18.75 19.348V22.652C19.686 22.397 20.25 21.678 20.25 21C20.25 20.322 19.686 19.603 18.75 19.348Z" fill="white"/>
<path fill-rule="evenodd" clip-rule="evenodd" d="M28 18.5C28 24.023 23.523 28.5 18 28.5C12.477 28.5 8 24.023 8 18.5C8 12.977 12.477 8.5 18 8.5C23.523 8.5 28 12.977 28 18.5ZM18 11.75C18.1989 11.75 18.3897 11.829 18.5303 11.9697C18.671 12.1103 18.75 12.3011 18.75 12.5V12.817C20.38 13.109 21.75 14.334 21.75 16C21.75 16.1989 21.671 16.3897 21.5303 16.5303C21.3897 16.671 21.1989 16.75 21 16.75C20.8011 16.75 20.6103 16.671 20.4697 16.5303C20.329 16.3897 20.25 16.1989 20.25 16C20.25 15.322 19.686 14.603 18.75 14.347V17.817C20.38 18.109 21.75 19.334 21.75 21C21.75 22.666 20.38 23.891 18.75 24.183V24.5C18.75 24.6989 18.671 24.8897 18.5303 25.0303C18.3897 25.171 18.1989 25.25 18 25.25C17.8011 25.25 17.6103 25.171 17.4697 25.0303C17.329 24.8897 17.25 24.6989 17.25 24.5V24.183C15.62 23.891 14.25 22.666 14.25 21C14.25 20.8011 14.329 20.6103 14.4697 20.4697C14.6103 20.329 14.8011 20.25 15 20.25C15.1989 20.25 15.3897 20.329 15.5303 20.4697C15.671 20.6103 15.75 20.8011 15.75 21C15.75 21.678 16.314 22.397 17.25 22.652V19.183C15.62 18.891 14.25 17.666 14.25 16C14.25 14.334 15.62 13.109 17.25 12.817V12.5C17.25 12.3011 17.329 12.1103 17.4697 11.9697C17.6103 11.829 17.8011 11.75 18 11.75Z" fill="white"/>
</svg>
