<svg width="37" height="37" viewBox="0 0 37 37" fill="none" xmlns="http://www.w3.org/2000/svg">
<rect x="0.5" y="0.5" width="36" height="36" rx="8" fill="#62C9CC"/>
<rect x="1" y="1" width="35" height="35" rx="7.5" stroke="#62C9CC" stroke-opacity="0.12"/>
<g clip-path="url(#clip0_78165_1738)">
<path d="M16.7789 6.63539C11.212 7.49482 6.95195 12.0785 6.53378 17.7039C6.06334 23.772 10.5586 29.3193 16.7527 30.361C20.2288 30.934 24.0184 29.7099 26.7365 27.1577C29.2716 24.7877 30.5 21.9229 30.5 18.4852C30.5 11.219 23.94 5.54156 16.7789 6.63539ZM22.79 8.92722C27.2069 11.0107 29.7421 15.5944 28.9319 20.1259C28.6182 21.949 27.4944 24.4491 26.6058 25.2305C26.1092 25.6732 25.9786 25.6992 25.4036 25.3867C24.0968 24.6835 23.7048 23.6158 23.7048 20.777V18.1987L24.6195 17.8601C25.6911 17.4955 26.5797 16.4538 26.5797 15.5944C26.5797 14.9693 26.5274 14.9693 24.0968 14.9693H21.6139V21.2458L15.4721 21.0895L15.3153 14.9693H12.8586C10.1143 14.9693 10.0098 15.0474 10.7677 16.5319C11.1598 17.3132 12.362 18.0945 13.1199 18.0945C13.4335 18.0945 13.5119 18.5112 13.5119 20.5947C13.5119 23.3814 13.1461 24.345 11.6825 25.3867L10.9245 25.9336L10.0882 24.8138C8.49394 22.6261 8.18032 21.6364 8.18032 18.4852C8.15418 15.8548 8.20645 15.4902 8.88597 14.1359C10.2973 11.2711 13.1199 8.92722 16.021 8.198C17.9027 7.72921 20.9083 8.06778 22.79 8.92722ZM17.4323 24.2148C17.4323 25.1002 17.4061 25.1263 16.3607 25.1263H15.3153L15.3937 26.0899L15.4721 27.0795H21.4833L21.5617 26.0899L21.6401 25.1263H20.5947C19.5492 25.1263 19.5231 25.1002 19.5231 24.2148V23.3032H20.7776C22.006 23.3032 22.0844 23.3293 22.5287 24.345C22.79 24.944 23.4173 25.7774 23.9139 26.1941C24.7502 26.9493 24.7763 27.0014 24.332 27.34C23.365 28.0952 20.9083 28.8505 19.1049 28.9547C16.988 29.1109 14.8449 28.6161 13.2245 27.5744L12.2052 26.9493L13.2506 26.0118C13.8256 25.4909 14.4267 24.6835 14.6096 24.1887C14.8971 23.3553 14.9755 23.3032 16.1778 23.3032H17.4323V24.2148Z" fill="white"/>
<path d="M15.9421 10.1252C14.6092 10.5679 13.3024 11.3492 12.4922 12.2086L11.865 12.8858H12.9104C13.5638 12.8858 14.5308 12.5993 15.341 12.1826C17.275 11.1929 19.6272 11.1669 21.6396 12.1565C22.9987 12.8337 25.0111 13.1462 25.0111 12.6774C25.0111 12.3389 23.1816 11.0367 21.9271 10.4898C20.3851 9.81263 17.458 9.63033 15.9421 10.1252Z" fill="white"/>
</g>
<defs>
<clipPath id="clip0_78165_1738">
<rect width="24" height="24" fill="white" transform="translate(6.5 6.5)"/>
</clipPath>
</defs>
</svg>
