<svg width="36" height="37" viewBox="0 0 36 37" fill="none" xmlns="http://www.w3.org/2000/svg">
<rect y="0.5" width="36" height="36" rx="8" fill="#62C9CC"/>
<rect x="0.5" y="1" width="35" height="35" rx="7.5" stroke="#62C9CC" stroke-opacity="0.12"/>
<path d="M22 8.5L27 13.5V27.508C26.9997 27.7712 26.895 28.0235 26.7088 28.2095C26.5226 28.3955 26.2702 28.5 26.007 28.5H9.993C9.73038 28.4982 9.47902 28.3931 9.29322 28.2075C9.10742 28.0219 9.00209 27.7706 9 27.508V9.492C9 8.944 9.445 8.5 9.993 8.5H22ZM19.2 18.5L22 14.5H19.6L18 16.786L16.4 14.5H14L16.8 18.5L14 22.5H16.4L18 20.214L19.6 22.5H22L19.2 18.5Z" fill="white"/>
</svg>
