<svg width="36" height="37" viewBox="0 0 36 37" fill="none" xmlns="http://www.w3.org/2000/svg">
<rect y="0.5" width="36" height="36" rx="8" fill="#62C9CC"/>
<rect x="0.5" y="1" width="35" height="35" rx="7.5" stroke="#62C9CC" stroke-opacity="0.12"/>
<path d="M18 8C15.8128 8.00258 13.7158 8.8726 12.1692 10.4192C10.6226 11.9658 9.75259 14.0628 9.75001 16.25C9.74739 18.0374 10.3312 19.7763 11.412 21.2C11.412 21.2 11.637 21.4962 11.6738 21.539L18 29L24.3293 21.5353C24.3623 21.4955 24.588 21.2 24.588 21.2L24.5888 21.1978C25.669 19.7747 26.2526 18.0366 26.25 16.25C26.2474 14.0628 25.3774 11.9658 23.8308 10.4192C22.2842 8.8726 20.1873 8.00258 18 8ZM18.75 20H17.25V18.5H18.75V20ZM18.75 17H17.25V15.5H18.75V17ZM21.75 20H20.25V14H15.75V20H14.25V14C14.2504 13.6023 14.4086 13.221 14.6898 12.9398C14.971 12.6586 15.3523 12.5004 15.75 12.5H20.25C20.6477 12.5004 21.029 12.6586 21.3102 12.9398C21.5914 13.221 21.7496 13.6023 21.75 14V20Z" fill="white"/>
</svg>
