<svg width="328" height="27" viewBox="0 0 328 27" fill="none" xmlns="http://www.w3.org/2000/svg">
<mask id="path-1-inside-1_78165_1801" fill="white">
<path d="M0 0H328V27H0V0Z"/>
</mask>
<path d="M328 26H0V28H328V26Z" fill="white" fill-opacity="0.32" mask="url(#path-1-inside-1_78165_1801)"/>
<path d="M1.12 13V3.2H2.478L6.888 10.872V3.2H8.106V13H6.762L2.352 5.328V13H1.12ZM16.0045 9.402C16.0045 9.57933 15.9905 9.822 15.9625 10.13H10.9645C10.9738 10.746 11.1605 11.2313 11.5245 11.586C11.8885 11.9313 12.3785 12.104 12.9945 12.104C13.8532 12.104 14.4225 11.7867 14.7025 11.152H15.9205C15.8085 11.7493 15.4818 12.2347 14.9405 12.608C14.3992 12.9813 13.7505 13.168 12.9945 13.168C12.0052 13.168 11.2165 12.8647 10.6285 12.258C10.0498 11.642 9.76052 10.8113 9.76052 9.766C9.76052 8.73933 10.0498 7.918 10.6285 7.302C11.2072 6.686 11.9772 6.378 12.9385 6.378C13.8532 6.378 14.5905 6.658 15.1505 7.218C15.7198 7.778 16.0045 8.506 16.0045 9.402ZM10.9645 9.192H14.8005C14.8005 8.62267 14.6325 8.17467 14.2965 7.848C13.9698 7.52133 13.5125 7.358 12.9245 7.358C12.3458 7.358 11.8792 7.526 11.5245 7.862C11.1792 8.198 10.9925 8.64133 10.9645 9.192ZM20.2266 11.978C20.5626 11.978 20.8333 11.9547 21.0386 11.908V12.986C20.7586 13.0513 20.3993 13.084 19.9606 13.084C19.7646 13.084 19.5919 13.0747 19.4426 13.056C19.3026 13.0373 19.1346 12.986 18.9386 12.902C18.7426 12.818 18.5793 12.7013 18.4486 12.552C18.3179 12.3933 18.2059 12.174 18.1126 11.894C18.0193 11.6047 17.9726 11.2593 17.9726 10.858V7.568H16.8106V6.546H17.9726V4.502H19.1906V6.546H20.8146V7.568H19.1906V10.592C19.1906 11.1613 19.2746 11.5347 19.4426 11.712C19.6106 11.8893 19.8719 11.978 20.2266 11.978ZM26.1259 13V3.2H27.3999V13H26.1259ZM29.5695 13V6.546H30.7875V7.736C30.9649 7.316 31.2449 6.98467 31.6275 6.742C32.0195 6.49933 32.4909 6.378 33.0415 6.378C34.6469 6.378 35.4495 7.26 35.4495 9.024V13H34.2315V9.556C34.2315 8.828 34.1009 8.29133 33.8395 7.946C33.5875 7.60067 33.1769 7.428 32.6075 7.428C32.0195 7.428 31.5669 7.61933 31.2495 8.002C30.9415 8.38467 30.7875 8.912 30.7875 9.584V13H29.5695ZM40.1735 13.168C39.1935 13.168 38.4142 12.86 37.8355 12.244C37.2569 11.6187 36.9675 10.7973 36.9675 9.78C36.9675 8.76267 37.2569 7.946 37.8355 7.33C38.4142 6.70467 39.1935 6.392 40.1735 6.392C41.0415 6.392 41.7415 6.61133 42.2735 7.05C42.8055 7.47933 43.1089 8.058 43.1835 8.786H41.9655C41.7975 7.918 41.2002 7.484 40.1735 7.484C39.5482 7.484 39.0582 7.68933 38.7035 8.1C38.3489 8.50133 38.1715 9.06133 38.1715 9.78C38.1715 10.4987 38.3489 11.0633 38.7035 11.474C39.0582 11.8753 39.5482 12.076 40.1735 12.076C41.1909 12.076 41.7882 11.656 41.9655 10.816H43.1835C43.1089 11.5347 42.8055 12.1087 42.2735 12.538C41.7415 12.958 41.0415 13.168 40.1735 13.168ZM47.683 13.168C46.6563 13.168 45.8397 12.846 45.233 12.202C44.6263 11.5487 44.323 10.7367 44.323 9.766C44.323 8.79533 44.6263 7.988 45.233 7.344C45.8397 6.7 46.6563 6.378 47.683 6.378C48.7003 6.378 49.5123 6.70467 50.119 7.358C50.735 8.002 51.043 8.80467 51.043 9.766C51.043 10.7367 50.735 11.5487 50.119 12.202C49.5123 12.846 48.7003 13.168 47.683 13.168ZM46.101 11.432C46.493 11.8613 47.0203 12.076 47.683 12.076C48.3457 12.076 48.8683 11.8613 49.251 11.432C49.6337 10.9933 49.825 10.438 49.825 9.766C49.825 9.10333 49.6337 8.55733 49.251 8.128C48.8683 7.68933 48.3457 7.47 47.683 7.47C47.0203 7.47 46.493 7.68933 46.101 8.128C45.7183 8.55733 45.527 9.108 45.527 9.78C45.527 10.4427 45.7183 10.9933 46.101 11.432ZM52.6203 13V6.546H53.8383V7.722C53.969 7.33933 54.2023 7.022 54.5383 6.77C54.8743 6.50867 55.285 6.378 55.7703 6.378C56.881 6.378 57.5716 6.84 57.8423 7.764C57.9916 7.36267 58.253 7.03133 58.6263 6.77C58.9996 6.50867 59.429 6.378 59.9143 6.378C61.4636 6.378 62.2383 7.22267 62.2383 8.912V13H61.0203V9.15C61.0203 8.002 60.5536 7.428 59.6203 7.428C58.5656 7.428 58.0383 8.16533 58.0383 9.64V13H56.8203V9.234C56.8203 8.03 56.3583 7.428 55.4343 7.428C54.9303 7.428 54.5383 7.61467 54.2583 7.988C53.9783 8.352 53.8383 8.90267 53.8383 9.64V13H52.6203ZM69.9948 9.402C69.9948 9.57933 69.9808 9.822 69.9528 10.13H64.9548C64.9641 10.746 65.1508 11.2313 65.5148 11.586C65.8788 11.9313 66.3688 12.104 66.9848 12.104C67.8434 12.104 68.4128 11.7867 68.6928 11.152H69.9108C69.7988 11.7493 69.4721 12.2347 68.9308 12.608C68.3894 12.9813 67.7408 13.168 66.9848 13.168C65.9954 13.168 65.2068 12.8647 64.6188 12.258C64.0401 11.642 63.7508 10.8113 63.7508 9.766C63.7508 8.73933 64.0401 7.918 64.6188 7.302C65.1974 6.686 65.9674 6.378 66.9288 6.378C67.8434 6.378 68.5808 6.658 69.1408 7.218C69.7101 7.778 69.9948 8.506 69.9948 9.402ZM64.9548 9.192H68.7908C68.7908 8.62267 68.6228 8.17467 68.2868 7.848C67.9601 7.52133 67.5028 7.358 66.9147 7.358C66.3361 7.358 65.8694 7.526 65.5148 7.862C65.1694 8.198 64.9828 8.64133 64.9548 9.192Z" fill="white"/>
<path d="M287.914 10.312C287.914 11.1053 287.653 11.768 287.13 12.3C286.617 12.8227 285.907 13.1307 285.002 13.224V14.4H283.756V13.21C282.757 13.098 281.992 12.748 281.46 12.16C280.928 11.5627 280.662 10.7787 280.662 9.808H282.93C282.93 10.3307 283.061 10.7413 283.322 11.04C283.593 11.3387 283.961 11.488 284.428 11.488C284.829 11.488 285.133 11.3993 285.338 11.222C285.553 11.0353 285.66 10.7787 285.66 10.452C285.66 10.2 285.581 9.98533 285.422 9.808C285.263 9.62133 284.988 9.46267 284.596 9.332L282.874 8.8C282.239 8.59467 281.749 8.26333 281.404 7.806C281.068 7.33933 280.9 6.77 280.9 6.098C280.9 5.35133 281.166 4.726 281.698 4.222C282.239 3.70867 282.925 3.40533 283.756 3.312V2.08H285.002V3.34C285.907 3.46133 286.589 3.79267 287.046 4.334C287.513 4.87533 287.746 5.538 287.746 6.322H285.478C285.478 5.874 285.371 5.53333 285.156 5.3C284.941 5.05733 284.638 4.936 284.246 4.936C283.91 4.936 283.644 5.02 283.448 5.188C283.261 5.356 283.168 5.58467 283.168 5.874C283.168 6.16333 283.252 6.406 283.42 6.602C283.597 6.798 283.905 6.97533 284.344 7.134L286.066 7.694C287.298 8.10467 287.914 8.97733 287.914 10.312ZM295.759 11.936C295.087 12.7853 294.102 13.21 292.805 13.21C291.508 13.21 290.518 12.7853 289.837 11.936C289.165 11.0867 288.829 9.85467 288.829 8.24C288.829 6.62533 289.165 5.39333 289.837 4.544C290.518 3.69467 291.508 3.27 292.805 3.27C294.102 3.27 295.087 3.69467 295.759 4.544C296.44 5.39333 296.781 6.62533 296.781 8.24C296.781 9.85467 296.44 11.0867 295.759 11.936ZM292.805 11.39C294.018 11.39 294.625 10.34 294.625 8.24C294.625 6.14 294.018 5.09 292.805 5.09C291.592 5.09 290.985 6.14 290.985 8.24C290.985 9.31333 291.134 10.1067 291.433 10.62C291.732 11.1333 292.189 11.39 292.805 11.39ZM304.769 11.936C304.097 12.7853 303.112 13.21 301.815 13.21C300.517 13.21 299.528 12.7853 298.847 11.936C298.175 11.0867 297.839 9.85467 297.839 8.24C297.839 6.62533 298.175 5.39333 298.847 4.544C299.528 3.69467 300.517 3.27 301.815 3.27C303.112 3.27 304.097 3.69467 304.769 4.544C305.45 5.39333 305.791 6.62533 305.791 8.24C305.791 9.85467 305.45 11.0867 304.769 11.936ZM301.815 11.39C303.028 11.39 303.635 10.34 303.635 8.24C303.635 6.14 303.028 5.09 301.815 5.09C300.601 5.09 299.995 6.14 299.995 8.24C299.995 9.31333 300.144 10.1067 300.443 10.62C300.741 11.1333 301.199 11.39 301.815 11.39ZM309.207 12.734C308.946 13.0047 308.619 13.14 308.227 13.14C307.835 13.14 307.504 13.0047 307.233 12.734C306.972 12.4633 306.841 12.1413 306.841 11.768C306.841 11.3853 306.972 11.0633 307.233 10.802C307.504 10.5313 307.835 10.396 308.227 10.396C308.619 10.396 308.946 10.5313 309.207 10.802C309.478 11.0633 309.613 11.3853 309.613 11.768C309.613 12.1413 309.478 12.4633 309.207 12.734ZM317.442 11.936C316.77 12.7853 315.786 13.21 314.488 13.21C313.191 13.21 312.202 12.7853 311.52 11.936C310.848 11.0867 310.512 9.85467 310.512 8.24C310.512 6.62533 310.848 5.39333 311.52 4.544C312.202 3.69467 313.191 3.27 314.488 3.27C315.786 3.27 316.77 3.69467 317.442 4.544C318.124 5.39333 318.464 6.62533 318.464 8.24C318.464 9.85467 318.124 11.0867 317.442 11.936ZM314.488 11.39C315.702 11.39 316.308 10.34 316.308 8.24C316.308 6.14 315.702 5.09 314.488 5.09C313.275 5.09 312.668 6.14 312.668 8.24C312.668 9.31333 312.818 10.1067 313.116 10.62C313.415 11.1333 313.872 11.39 314.488 11.39ZM326.452 11.936C325.78 12.7853 324.796 13.21 323.498 13.21C322.201 13.21 321.212 12.7853 320.53 11.936C319.858 11.0867 319.522 9.85467 319.522 8.24C319.522 6.62533 319.858 5.39333 320.53 4.544C321.212 3.69467 322.201 3.27 323.498 3.27C324.796 3.27 325.78 3.69467 326.452 4.544C327.134 5.39333 327.474 6.62533 327.474 8.24C327.474 9.85467 327.134 11.0867 326.452 11.936ZM323.498 11.39C324.712 11.39 325.318 10.34 325.318 8.24C325.318 6.14 324.712 5.09 323.498 5.09C322.285 5.09 321.678 6.14 321.678 8.24C321.678 9.31333 321.828 10.1067 322.126 10.62C322.425 11.1333 322.882 11.39 323.498 11.39Z" fill="white"/>
</svg>
