<svg width="44" height="44" viewBox="0 0 44 44" fill="none" xmlns="http://www.w3.org/2000/svg">
<circle cx="22" cy="22" r="21.5" stroke="#62C9CC"/>
<path d="M16.9414 15.001C16.9411 15.5314 16.7302 16.04 16.3549 16.4149C15.9797 16.7898 15.4708 17.0003 14.9404 17C14.41 16.9997 13.9014 16.7888 13.5265 16.4135C13.1516 16.0382 12.9411 15.5294 12.9414 14.999C12.9417 14.4686 13.1526 13.96 13.5279 13.5851C13.9032 13.2102 14.412 12.9997 14.9424 13C15.4728 13.0003 15.9814 13.2112 16.3563 13.5865C16.7312 13.9618 16.9417 14.4706 16.9414 15.001ZM17.0014 18.481H13.0014V31.001H17.0014V18.481ZM23.3214 18.481H19.3414V31.001H23.2814V24.431C23.2814 20.771 28.0514 20.431 28.0514 24.431V31.001H32.0014V23.071C32.0014 16.901 24.9414 17.131 23.2814 20.161L23.3214 18.481Z" fill="#62C9CC"/>
</svg>
