<svg width="154" height="62" viewBox="0 0 154 62" fill="none" xmlns="http://www.w3.org/2000/svg">
<path d="M30.1954 22.4825C30.1954 24.0238 30.0556 24.3507 29.2637 24.3507C28.5649 24.3507 28.332 24.6777 28.332 25.5184C28.332 26.359 28.5649 26.686 29.2637 26.686C30.1022 26.686 30.1954 27.0129 30.1954 30.4224C30.1954 33.8319 30.3351 34.299 31.36 35.3265C32.1985 36.1672 32.9904 36.4941 34.3879 36.4941C36.0649 36.4941 36.2513 36.4007 36.2513 35.3265C36.2513 34.4391 36.0183 34.1589 35.1798 34.1589C33.4562 34.1589 32.9904 33.2715 32.9904 29.862V26.686H34.3879C35.5525 26.686 35.7854 26.4992 35.7854 25.5184C35.7854 24.5375 35.5525 24.3507 34.3879 24.3507C33.0836 24.3507 32.9904 24.2573 32.9904 22.4825C32.9904 20.7077 32.8972 20.6143 31.5929 20.6143C30.2885 20.6143 30.1954 20.7077 30.1954 22.4825Z" fill="white"/>
<path d="M75.3809 22.5294C75.3809 24.0707 75.2412 24.3976 74.4493 24.3976C73.7505 24.3976 73.5176 24.7245 73.5176 25.5652C73.5176 26.4059 73.7505 26.7329 74.4493 26.7329C75.2878 26.7329 75.3809 27.0598 75.3809 30.4693C75.3809 33.8788 75.5207 34.3459 76.5455 35.3734C77.384 36.2141 78.1759 36.541 79.5735 36.541C81.2505 36.541 81.4368 36.4476 81.4368 35.3734C81.4368 34.486 81.2039 34.2057 80.3654 34.2057C78.6418 34.2057 78.1759 33.3183 78.1759 29.9088V26.7329H79.5735C80.7381 26.7329 80.971 26.546 80.971 25.5652C80.971 24.5844 80.7381 24.3976 79.5735 24.3976C78.2691 24.3976 78.1759 24.3042 78.1759 22.5294C78.1759 20.7546 78.0828 20.6611 76.7784 20.6611C75.4741 20.6611 75.3809 20.7546 75.3809 22.5294Z" fill="white"/>
<path d="M4.34544 24.211C0.432412 25.2852 -1.29119 30.6563 1.08458 34.346C2.48209 36.4478 6.58146 37.2418 8.67773 35.7472C9.6094 35.0933 9.70257 35.0933 9.70257 35.7472C9.70257 36.261 10.1684 36.4945 11.1001 36.4945H12.4976V30.4228V24.3511H11.1001C10.1218 24.3511 9.70257 24.5846 9.70257 25.1451C9.70257 25.8456 9.65598 25.8456 8.86406 25.1451C7.93239 24.2577 5.74295 23.8373 4.34544 24.211ZM8.77089 27.6205C10.215 29.0683 10.0287 31.9641 8.49139 33.1784C6.11562 35.0466 3.36718 33.9257 2.90135 30.8898C2.34234 27.4803 6.39512 25.2385 8.77089 27.6205Z" fill="white"/>
<path d="M19.8559 24.7245C18.4584 25.4718 18.0857 25.5185 18.0857 25.0048C18.0857 24.5844 17.5733 24.3509 16.6882 24.3509H15.2441L15.3839 30.2825L15.5236 36.2608L16.828 36.4009L18.0857 36.541V33.0381C18.0857 28.8813 18.5982 27.34 20.1354 26.5927C21.0671 26.1724 21.5329 26.2191 22.5112 26.873C23.6292 27.6203 23.6758 27.8538 23.6758 32.0573V36.4943H25.0733H26.4708V31.6369C26.4708 27.1999 26.3776 26.6395 25.446 25.5652C24.0019 23.8838 21.9988 23.6036 19.8559 24.7245Z" fill="white"/>
<path d="M40.9562 24.4908C38.86 25.2381 37.6022 27.0129 37.3227 29.5817C36.8569 33.6918 39.2792 36.4941 43.2388 36.4941C46.0339 36.4941 48.8289 34.766 48.8289 33.0379C48.8289 32.4308 46.127 32.8044 45.568 33.4583C44.7295 34.4858 42.0277 34.3457 40.9097 33.2248C39.2792 31.5901 39.7916 31.3565 44.4034 31.3565H48.8289V29.7218C48.8289 25.4716 45.1022 22.9963 40.9562 24.4908ZM45.1954 27.0129C46.8258 28.5075 46.2668 29.0213 43.0059 29.0213C39.7916 29.0213 39.3724 28.6943 40.9097 27.153C42.0277 26.0321 44.0308 25.9387 45.1954 27.0129Z" fill="white"/>
<path d="M63.5049 24.2106C61.6881 24.7244 60.5236 25.8453 59.7316 27.8536C58.7068 30.6092 59.1726 32.9445 61.1757 34.9529C62.4335 36.2139 63.0857 36.4941 64.7627 36.4941C65.8807 36.4941 67.2782 36.1672 67.8372 35.7469C68.7689 35.093 68.862 35.093 68.862 35.7469C68.862 36.2606 69.3279 36.4941 70.2596 36.4941H71.6571V30.4224V24.3507H70.2596C69.2813 24.3507 68.862 24.5842 68.862 25.1447C68.862 25.8453 68.8155 25.8453 68.0235 25.1447C67.0919 24.2573 64.9024 23.837 63.5049 24.2106ZM67.9304 27.6201C69.1881 28.8811 69.1881 31.7769 67.9304 33.1313C66.7192 34.3924 64.6695 34.4391 63.2254 33.2715C61.8279 32.1505 61.6881 29.1147 62.9925 27.6668C64.1571 26.4058 66.6726 26.359 67.9304 27.6201Z" fill="white"/>
<path d="M86.792 24.9254C84.9753 25.4392 83.8107 26.5601 83.0187 28.5685C81.9939 31.3241 82.4597 33.6594 84.4628 35.6677C85.7206 36.9288 86.3728 37.209 88.0498 37.209C89.1678 37.209 90.5653 36.882 91.1243 36.4617C92.056 35.8078 92.1491 35.8078 92.1491 36.4617C92.1491 36.9755 92.615 37.209 93.5467 37.209H94.9442V31.1373V25.0656H93.5467C92.5684 25.0656 92.1491 25.2991 92.1491 25.8595C92.1491 26.5601 92.1026 26.5601 91.3106 25.8595C90.379 24.9721 88.1895 24.5518 86.792 24.9254ZM91.2175 28.3349C92.4752 29.596 92.4752 32.4917 91.2175 33.8462C90.0063 35.1072 87.9566 35.1539 86.5125 33.9863C85.115 32.8654 84.9753 29.8295 86.2796 28.3816C87.4442 27.1206 89.9597 27.0739 91.2175 28.3349Z" fill="white"/>
<path d="M51.1621 30.4224V36.4941H52.5596H53.9571V33.0846C53.9571 29.0213 54.6093 27.5267 56.659 26.9195C57.777 26.5926 58.1497 26.2189 58.1497 25.4249C58.1497 24.0238 56.2397 23.9304 54.8888 25.2848L53.9571 26.2189V25.2848C53.9571 24.5375 53.631 24.3507 52.5596 24.3507H51.1621V30.4224Z" fill="white"/>
</svg>
